PathFileType	4	(X/Y/Z)	C:\Users\WrightLab\Desktop\Jo\P3_14.trc
DataRate	CameraRate	NumFrames	NumMarkers	Units	OrigDataRate	OrigDataStartFrame	OrigNumFrames
100.00	100.00	       9	19	mm	100.00	505	       672
Frame#	Time	Headset_Front			Headset_Back			Headset_Left			Headset_Right			Left_Shoulder			Right_Shoulder			Sternum			C7			Left Elbow			Right Elbow			Left Wrist			Right Wrist			Left ASIS			Right ASIS			S2			Left Knee			Right Knee			Left Ankle			Right Ankle			
		X1	Y1	Z1	X2	Y2	Z2	X3	Y3	Z3	X4	Y4	Z4	X5	Y5	Z5	X6	Y6	Z6	X7	Y7	Z7	X8	Y8	Z8	X9	Y9	Z9	X10	Y10	Z10	X11	Y11	Z11	X12	Y12	Z12	X13	Y13	Z13	X14	Y14	Z14	X15	Y15	Z15	X16	Y16	Z16	X17	Y17	Z17	X18	Y18	Z18	X19	Y19	Z19	

505	5.040	-38.40001	1553.58362	2137.68506	120.56259	1613.52307	2013.38928				-106.66628	1578.79956	2008.75098	225.08331	1374.02539	1977.60535	-124.11117	1377.26721	1880.96021	17.83304	1274.62854	2069.55493				288.06985	1043.51465	2013.20837	-198.50661	1035.78967	1855.38965	255.07976	864.99976	2115.14160	-245.13896	858.24280	1999.62146	111.12397	910.36621	2102.52686	-128.89841	900.87122	2025.62659	54.25407	973.54236	1858.95178	115.29744	496.33575	2136.28931	-68.94759	467.67117	1924.62170	115.58502	166.69522	2144.82202	10.01968	189.67690	1737.06909	
506	5.050	-40.14235	1555.20178	2144.41089	119.16544	1615.17761	2021.57642				-107.59739	1579.94458	2015.54626	224.12611	1374.86548	1986.52258	-123.96502	1379.23486	1888.26855	16.38083	1276.78333	2077.47852				287.55847	1044.36157	2021.60461	-198.12895	1037.62280	1860.78748	252.77420	867.11871	2125.02368	-245.54448	858.16779	2001.33972	109.59416	910.94507	2109.37451	-129.76295	901.57690	2031.60205	53.28764	975.47137	1864.90015	116.35957	499.38010	2142.31567	-74.25124	467.13120	1939.02832	115.39983	164.45877	2143.04956	8.02212	193.79700	1744.04041	
507	5.060	-42.06435	1556.49573	2150.63013	117.85322	1616.74243	2029.44250				-109.03407	1581.98352	2021.21484	223.41708	1376.22180	1994.82397	-124.49769	1380.29395	1894.07837	14.58805	1278.29688	2085.09595				285.70102	1045.93140	2029.81677	-198.04546	1039.62830	1864.57776	249.87680	867.44836	2132.75928	-245.86865	858.23822	2003.21045	108.19341	911.79419	2118.03320	-130.80815	903.34155	2038.26746	52.60556	976.52600	1873.63928				-79.60149	466.64728	1954.46277	116.38263	166.49304	2146.17773	5.57502	201.12007	1747.80872	
508	5.070	-44.02580	1558.10071	2156.92944	116.86432	1617.64368	2035.90588				-110.55160	1583.04211	2028.56567	222.26900	1377.26611	2002.99121	-124.68687	1381.94128	1900.69678	12.98607	1279.17517	2092.55420				284.15958	1046.89258	2038.90588	-197.84471	1041.16663	1869.70203	247.62857	869.96106	2142.64209	-246.16292	859.03101	2006.26526	105.97720	912.40582	2124.71021	-132.45258	905.77600	2045.93237	52.00003	977.94714	1879.20630	116.71306	495.26169	2143.70410	-85.37057	466.66486	1969.34021	116.37632	165.98567	2146.82813	2.84761	203.51172	1761.31873	
509	5.080	-46.64194	1559.89221	2164.15771	114.99317	1618.65747	2044.08594				-111.69830	1583.79688	2034.31848	220.87602	1378.59436	2011.48010	-125.05070	1383.37537	1907.04236	11.18109	1280.60986	2099.56738				281.92859	1047.40820	2046.78284	-197.81268	1042.90283	1874.15271	244.85172	870.04736	2150.04590	-246.51660	859.68408	2009.34375	104.13839	913.23804	2132.93384	-133.99980	907.52179	2050.99731	51.83313	978.81519	1887.98792	117.37579	497.10461	2150.30688	-90.66319	466.28418	1985.87659	116.25268	165.80324	2147.22021	-0.76594	210.32851	1768.95935	
510	5.090	-49.18308	1561.01526	2170.14258	113.70679	1619.83105	2051.08618				-113.48843	1585.11316	2040.05188	219.75418	1379.96777	2021.00232	-125.41167	1384.43506	1913.23242	9.36535	1281.93933	2107.47412				281.10358	1049.11633	2056.62109	-198.14525	1044.24377	1878.48096	242.40340	872.18994	2160.54492	-247.19344	860.15839	2012.46338	102.46404	912.74066	2138.05371	-135.16360	908.50934	2056.64453	51.82489	980.10474	1893.59717	117.41276	494.91776	2148.55542	-95.82372	466.35901	2000.95984	116.10714	165.48512	2147.74268	-3.35419	216.29575	1781.22607	
511	5.100	-51.91386	1562.43237	2176.42627	111.71545	1621.28394	2059.22656				-114.48810	1586.47656	2045.84912	218.34557	1380.66772	2030.05908	-126.31728	1385.89539	1919.99255	6.94179	1282.26697	2113.70996				278.47626	1049.26392	2063.59399	-198.38585	1045.67017	1882.01953	239.72838	872.53467	2168.30981	-248.34837	859.88824	2015.46936	100.58994	912.84113	2145.25757	-136.86058	909.86548	2062.51318	51.90773	980.57532	1901.24976	117.27250	494.89377	2151.88208	-100.94620	466.81430	2017.05798	115.91651	165.40289	2148.02368	-6.59403	222.67763	1791.55139	
512	5.110	-54.66455	1563.95813	2182.96289	110.12613	1621.96814	2066.15698				-116.31918	1586.43604	2051.94653	216.70181	1381.53870	2039.24475	-126.72410	1385.99731	1925.86133	5.04625	1283.31104	2122.06982				278.01910	1050.98987	2074.70239				237.51340	873.48492	2177.49243	-249.68115	860.38171	2018.45886	99.15597	912.69519	2151.29761	-138.05525	910.54950	2066.23340	51.92025	980.39337	1907.21887	116.82366	495.29013	2153.72388	-106.59389	467.75000	2032.10071	115.69287	165.23883	2148.35474	-9.85545	229.23344	1802.16309	
513	5.120	-57.67091	1565.25134	2189.45825	107.96689	1623.05872	2073.37402							215.04648	1382.30554	2048.32446	-127.46054	1386.78406	1932.65930	2.69926	1282.86560	2128.15332				275.64148	1051.27576	2082.87109				234.86736	874.59595	2186.48462	-250.86238	860.44189	2021.29102	96.64755	912.23718	2156.84277	-139.86784	911.30109	2070.37695	51.89702	981.47894	1912.04211	115.82346	494.80658	2156.83984	-112.34609	468.90576	2047.91089	115.65556	165.17688	2148.43042	-13.25726	235.98999	1813.97070	
